<?xml version="1.0" encoding="UTF-8" standalone="no"?>
<svg
   xmlns:dc="http://purl.org/dc/elements/1.1/"
   xmlns:cc="http://creativecommons.org/ns#"
   xmlns:rdf="http://www.w3.org/1999/02/22-rdf-syntax-ns#"
   xmlns:svg="http://www.w3.org/2000/svg"
   xmlns="http://www.w3.org/2000/svg"
   viewBox="0 0 1045 340"
   height="340"
   width="1045"
   xml:space="preserve"
   version="1.1"
   id="svg2"><metadata
     id="metadata8"><rdf:RDF><cc:Work
         rdf:about=""><dc:format>image/svg+xml</dc:format><dc:type
           rdf:resource="http://purl.org/dc/dcmitype/StillImage" /><dc:title></dc:title></cc:Work></rdf:RDF></metadata><defs
     id="defs6"><clipPath
       id="clipPath16"
       clipPathUnits="userSpaceOnUse"><path
         id="path18"
         d="M 0,272 836,272 836,0 0,0 0,272 Z" /></clipPath></defs><g
     transform="matrix(1.25,0,0,-1.25,0,340)"
     id="g10"><g
       id="g12"><g
         clip-path="url(#clipPath16)"
         id="g14"><g
           transform="translate(108.0003,147.326)"
           id="g20"><path
             id="path22"
             style="fill:#3f95d1;fill-opacity:1;fill-rule:nonzero;stroke:none"
             d="m 0,0 0,28.674 96,0 c 0.98,-5.054 1.553,-11.067 1.553,-17.58 0,-21.504 -5.887,-48.129 -24.832,-67.074 C 54.287,-75.182 30.734,-85.422 -0.5,-85.422 c -57.857,0 -106.5,47.106 -106.5,104.965 0,57.857 48.643,104.965 106.5,104.965 32.002,0 54.787,-12.545 71.939,-28.93 L 51.215,75.354 c -12.289,11.519 -28.93,20.48 -51.715,20.48 -42.242,0 -75.268,-34.049 -75.268,-76.291 0,-42.242 33.026,-76.293 75.268,-76.293 27.395,0 43.01,11.01 52.994,20.994 8.135,8.134 13.494,19.802 15.573,35.756 L 0,0 Z" /></g><g
           transform="translate(322.1458,129.4901)"
           id="g24"><path
             id="path26"
             style="fill:#ef4636;fill-opacity:1;fill-rule:nonzero;stroke:none"
             d="m 0,0 c 0,24.322 -17.664,40.963 -38.145,40.963 -20.482,0 -38.146,-16.641 -38.146,-40.963 0,-24.064 17.664,-40.961 38.146,-40.961 C -17.664,-40.961 0,-24.064 0,0 m 29.697,0 c 0,-38.914 -30.465,-67.586 -67.842,-67.586 -37.378,0 -67.843,28.672 -67.843,67.586 0,39.17 30.465,67.588 67.843,67.588 C -0.768,67.588 29.697,39.17 29.697,0" /></g><g
           transform="translate(470.1458,129.4901)"
           id="g28"><path
             id="path30"
             style="fill:#ffc20d;fill-opacity:1;fill-rule:nonzero;stroke:none"
             d="m 0,0 c 0,24.322 -17.664,40.963 -38.145,40.963 -20.482,0 -38.146,-16.641 -38.146,-40.963 0,-24.064 17.664,-40.961 38.146,-40.961 C -17.664,-40.961 0,-24.064 0,0 m 29.697,0 c 0,-38.914 -30.465,-67.586 -67.842,-67.586 -37.378,0 -67.843,28.672 -67.843,67.586 0,39.17 30.465,67.588 67.843,67.588 C -0.768,67.588 29.697,39.17 29.697,0" /></g><g
           transform="translate(615.5872,129.2342)"
           id="g32"><path
             id="path34"
             style="fill:#3f95d1;fill-opacity:1;fill-rule:nonzero;stroke:none"
             d="M 0,0 C 0,23.811 -15.873,41.219 -36.098,41.219 -56.58,41.219 -73.732,23.811 -73.732,0 c 0,-23.553 17.152,-40.705 37.634,-40.705 C -15.873,-40.705 0,-23.553 0,0 m 26.113,63.748 0,-121.35 c 0,-49.923 -29.441,-70.404 -64.259,-70.404 -32.77,0 -52.483,22.018 -59.907,39.938 l 25.858,10.754 c 4.607,-11.01 15.871,-24.067 34.049,-24.067 22.273,0 36.097,13.826 36.097,39.682 l 0,9.728 -1.023,0 c -6.657,-8.191 -19.457,-15.359 -35.586,-15.359 -33.795,0 -64.772,29.441 -64.772,67.33 0,38.146 30.977,67.844 64.772,67.844 16.129,0 28.929,-7.168 35.586,-15.106 l 1.023,0 0,11.01 28.162,0 z" /></g><path
           id="path36"
           style="fill:#2fb455;fill-opacity:1;fill-rule:nonzero;stroke:none"
           d="m 692,66 -29.697,0 0,198 29.697,0 0,-198 z" /><g
           transform="translate(735.764,131.5389)"
           id="g38"><path
             id="path40"
             style="fill:#ef4636;fill-opacity:1;fill-rule:nonzero;stroke:none"
             d="M 0,0 60.418,25.09 C 57.09,33.537 47.105,39.426 35.33,39.426 20.225,39.426 -0.768,26.113 0,0 m 70.916,-24.32 23.041,-15.362 c -7.426,-11.007 -25.346,-29.953 -56.324,-29.953 -38.401,0 -67.074,29.697 -67.074,67.586 0,40.195 28.929,67.588 63.746,67.588 35.074,0 52.226,-27.906 57.859,-43.01 L 95.236,14.85 4.863,-22.529 c 6.914,-13.569 17.666,-20.481 32.77,-20.481 15.105,0 25.601,7.424 33.283,18.69" /></g></g></g></g></svg>