<?xml version="1.0" encoding="UTF-8" standalone="no"?>
<!-- Generator: Adobe Illustrator 17.0.1, SVG Export Plug-In . SVG Version: 6.00 Build 0)  -->

<svg
   xmlns:dc="http://purl.org/dc/elements/1.1/"
   xmlns:cc="http://creativecommons.org/ns#"
   xmlns:rdf="http://www.w3.org/1999/02/22-rdf-syntax-ns#"
   xmlns:svg="http://www.w3.org/2000/svg"
   xmlns="http://www.w3.org/2000/svg"
   xmlns:sodipodi="http://sodipodi.sourceforge.net/DTD/sodipodi-0.dtd"
   xmlns:inkscape="http://www.inkscape.org/namespaces/inkscape"
   version="1.1"
   id="Layer_1"
   x="0px"
   y="0px"
   width="185px"
   height="188px"
   viewBox="0 0 185 188"
   enable-background="new 0 0 185 188"
   xml:space="preserve"
   inkscape:version="0.91 r13725"
   sodipodi:docname="logos.svg"
   inkscape:export-filename="/home/iblancasa/Proyectos/io.gdg.es/img/sprites/logos.png"
   inkscape:export-xdpi="90"
   inkscape:export-ydpi="90"><metadata
     id="metadata235"><rdf:RDF><cc:Work
         rdf:about=""><dc:format>image/svg+xml</dc:format><dc:type
           rdf:resource="http://purl.org/dc/dcmitype/StillImage" /></cc:Work></rdf:RDF></metadata><defs
     id="defs233" /><sodipodi:namedview
     pagecolor="#ffffff"
     bordercolor="#666666"
     borderopacity="1"
     objecttolerance="10"
     gridtolerance="10"
     guidetolerance="10"
     inkscape:pageopacity="0"
     inkscape:pageshadow="2"
     inkscape:window-width="1680"
     inkscape:window-height="1021"
     id="namedview231"
     showgrid="false"
     inkscape:zoom="3.5505787"
     inkscape:cx="-4.6813313"
     inkscape:cy="91.565138"
     inkscape:window-x="0"
     inkscape:window-y="0"
     inkscape:window-maximized="1"
     inkscape:current-layer="Layer_1" /><g
     id="g3638"
     transform="matrix(0.1706516,0,0,0.18411017,63.718445,-7.8308383)"><path
       inkscape:connector-curvature="0"
       id="path14"
       style="fill:#5c6bc0;fill-opacity:1;fill-rule:nonzero;stroke:none"
       d="m -350.43946,328.32824 106.206,0 0,-212.4125 -106.206,0 0,212.4125 z" /><path
       inkscape:connector-curvature="0"
       id="path16"
       style="fill:#5c6bc0;fill-opacity:1;fill-rule:nonzero;stroke:none"
       d="m -46.992083,112.12199 c -60.751257,0 -109.999997,49.24875 -109.999997,110 0,60.75125 49.24874,109.99975 109.999997,109.99975 60.75125,0 110,-49.2485 110,-109.99975 0,-60.75125 -49.24875,-110 -110,-110" /><path
       inkscape:connector-curvature="0"
       id="path18"
       style="fill:#5c6bc0;fill-opacity:1;fill-rule:nonzero;stroke:none"
       d="m -217.09833,374.62812 -15.3025,-3.461 66.7125,-294.913882 15.3025,3.46125 -66.7125,294.913632" /><path
       inkscape:connector-curvature="0"
       id="path20"
       style="fill:#b0bec5;fill-opacity:1;fill-rule:nonzero;stroke:none"
       d="m 194.58916,140.69074 -48.08624,0 0,33.4825 43.36499,0 0,12.685 -43.36499,0 0,33.4825 48.08624,0 0,12.98 -61.65625,0 0,-105.61125 61.65625,0 0,12.98125" /><path
       inkscape:connector-curvature="0"
       id="path22"
       style="fill:#b0bec5;fill-opacity:1;fill-rule:nonzero;stroke:none"
       d="m 266.27166,233.32074 -15.93,0 -17.84625,-26.6975 -17.5525,26.6975 -15.93,0 25.5175,-36.7275 -24.92875,-35.5475 15.34125,0 17.84625,25.5175 16.9625,-25.5175 15.93125,0 -25.22375,35.5475 25.8125,36.7275" /><path
       inkscape:connector-curvature="0"
       id="path24"
       style="fill:#b0bec5;fill-opacity:1;fill-rule:nonzero;stroke:none"
       d="m 304.03041,234.50074 c -7.5725,0 -13.34749,-2.01375 -17.33124,-6.0475 -3.9825,-4.03125 -5.9725,-9.735 -5.9725,-17.11 l 0,-37.9075 -12.68625,0 0,-12.39 12.68625,0 0,-22.125 13.56875,0 0,22.125 17.7,0 0,12.39 -17.7,0 0,36.875 c 0,7.86875 3.245,11.8 9.735,11.8 2.4575,0 4.52125,-0.39125 6.195,-1.18 l 4.72125,11.6525 c -2.95125,1.2775 -6.59,1.9175 -10.91625,1.9175" /><path
       inkscape:connector-curvature="0"
       id="path26"
       style="fill:#b0bec5;fill-opacity:1;fill-rule:nonzero;stroke:none"
       d="m 373.50166,188.48074 c -0.295,-4.13 -2.18875,-8.06125 -5.67875,-11.8 -3.49125,-3.73625 -8.67875,-5.605 -15.56125,-5.605 -5.01375,0 -9.36625,1.57375 -13.0525,4.72 -3.6875,3.14875 -6.22125,7.375 -7.59625,12.685 l 41.88875,0 z m -19.47,47.2 c -10.91375,0 -19.79,-3.6375 -26.62375,-10.915 -6.835,-7.27625 -10.25125,-16.47 -10.25125,-27.5825 0,-10.52125 3.32,-19.56625 9.95625,-27.14 6.63875,-7.57125 15.12,-11.3575 25.445,-11.3575 10.71625,0 19.29625,3.49125 25.7375,10.4725 6.44,6.98375 9.6625,16.32375 9.6625,28.025 l -0.1475,2.5075 -57.0825,0 c 0.39125,7.27875 2.825,13.03 7.30125,17.2575 4.47375,4.22875 9.70875,6.3425 15.70875,6.3425 9.735,0 16.32125,-4.13 19.76375,-12.39 l 12.095,5.015 c -2.35875,5.605 -6.245,10.30125 -11.65125,14.08625 -5.41,3.78375 -12.0475,5.67875 -19.91375,5.67875" /><path
       inkscape:connector-curvature="0"
       id="path28"
       style="fill:#b0bec5;fill-opacity:1;fill-rule:nonzero;stroke:none"
       d="m 410.37541,161.04574 0,10.03 0.59,0 c 1.96625,-3.44125 5.06375,-6.36625 9.29375,-8.77625 4.22626,-2.40875 8.75,-3.61375 13.56876,-3.61375 8.94624,0 15.7825,2.75375 20.50374,8.26 4.71875,5.50875 7.08001,12.88375 7.08001,22.125 l 0,44.25 -13.57125,0 0,-42.185 c 0,-13.37125 -5.95125,-20.06 -17.8475,-20.06 -5.605,0 -10.1775,2.2375 -13.7175,6.71125 -3.54,4.475 -5.31,9.66125 -5.31,15.56125 l 0,39.9725 -13.56875,0 0,-72.275 12.97875,0" /><path
       inkscape:connector-curvature="0"
       id="path30"
       style="fill:#b0bec5;fill-opacity:1;fill-rule:nonzero;stroke:none"
       d="m 506.84041,223.29074 c 6.39125,0 11.8225,-2.36 16.29875,-7.08 4.47375,-4.72 6.71125,-11.0625 6.71125,-19.0275 0,-7.965 -2.2375,-14.3075 -6.71125,-19.0275 -4.47625,-4.72 -9.9075,-7.08 -16.29875,-7.08 -6.29375,0 -11.70375,2.385 -16.225,7.15375 -4.52375,4.77 -6.785,11.0875 -6.785,18.95375 0,7.86875 2.26125,14.185 6.785,18.95375 4.52125,4.77 9.93125,7.15375 16.225,7.15375 z m -2.2125,12.39 c -9.34375,0 -17.405,-3.6875 -24.19,-11.0625 -6.785,-7.375 -10.1775,-16.52 -10.1775,-27.435 0,-10.915 3.3925,-20.06 10.1775,-27.435 6.785,-7.375 14.84625,-11.0625 24.19,-11.0625 5.50625,0 10.44625,1.18 14.82375,3.54 4.37375,2.36 7.64375,5.31 9.80876,8.85 l 0.59,0 -0.59,-10.03 0,-33.33625 13.57,0 0,105.61125 -12.98,0 0,-10.03 -0.59,0 c -2.165,3.54 -5.435,6.49 -9.80876,8.85 -4.3775,2.36 -9.3175,3.54 -14.82375,3.54" /><path
       inkscape:connector-curvature="0"
       id="path32"
       style="fill:#b0bec5;fill-opacity:1;fill-rule:nonzero;stroke:none"
       d="m 607.87791,188.48074 c -0.295,-4.13 -2.18875,-8.06125 -5.67875,-11.8 -3.49125,-3.73625 -8.67875,-5.605 -15.56125,-5.605 -5.015,0 -9.36625,1.57375 -13.0525,4.72 -3.6875,3.14875 -6.22125,7.375 -7.59625,12.685 l 41.88875,0 z m -19.47,47.2 c -10.91375,0 -19.79,-3.6375 -26.62375,-10.915 -6.835,-7.27625 -10.25125,-16.47 -10.25125,-27.5825 0,-10.52125 3.31875,-19.56625 9.95625,-27.14 6.63875,-7.57125 15.12,-11.3575 25.445,-11.3575 10.71625,0 19.29625,3.49125 25.7375,10.4725 6.44,6.98375 9.6625,16.32375 9.6625,28.025 l -0.1475,2.5075 -57.0825,0 c 0.39125,7.27875 2.825,13.03 7.3,17.2575 4.475,4.22875 9.71,6.3425 15.71,6.3425 9.735,0 16.32125,-4.13 19.76375,-12.39 l 12.095,5.015 c -2.36,5.605 -6.245,10.30125 -11.65125,14.08625 -5.41,3.78375 -12.0475,5.67875 -19.91375,5.67875" /><path
       inkscape:connector-curvature="0"
       id="path34"
       style="fill:#b0bec5;fill-opacity:1;fill-rule:nonzero;stroke:none"
       d="m 664.95794,223.29074 c 6.3912,0 11.8225,-2.36 16.3,-7.08 4.4725,-4.72 6.71,-11.0625 6.71,-19.0275 0,-7.965 -2.2375,-14.3075 -6.71,-19.0275 -4.4775,-4.72 -9.9088,-7.08 -16.3,-7.08 -6.2938,0 -11.7038,2.385 -16.22503,7.15375 -4.52375,4.77 -6.785,11.0875 -6.785,18.95375 0,7.86875 2.26125,14.185 6.785,18.95375 4.52123,4.77 9.93123,7.15375 16.22503,7.15375 z m -2.2125,12.39 c -9.3438,0 -17.40503,-3.6875 -24.19003,-11.0625 -6.785,-7.375 -10.1775,-16.52 -10.1775,-27.435 0,-10.915 3.3925,-20.06 10.1775,-27.435 6.785,-7.375 14.84623,-11.0625 24.19003,-11.0625 5.5062,0 10.4462,1.18 14.8237,3.54 4.3738,2.36 7.645,5.31 9.8088,8.85 l 0.59,0 -0.59,-10.03 0,-33.33625 13.57,0 0,105.61125 -12.98,0 0,-10.03 -0.59,0 c -2.1638,3.54 -5.435,6.49 -9.8088,8.85 -4.3775,2.36 -9.3175,3.54 -14.8237,3.54" /><text
       id="text38"
       style="font-variant:normal;font-weight:normal;font-size:77.5px;font-family:ProductSans;-inkscape-font-specification:ProductSans-Regular;writing-mode:lr-tb;fill:#b0bec5;fill-opacity:1;fill-rule:nonzero;stroke:none"
       x="127.21542"
       y="315.82098"><tspan
         y="315.82098"
         id="tspan40"
         sodipodi:role="line"
         x="127.21542">Madrid</tspan></text>
</g><path
     d="m 1.5422584,114.27198 18.1242236,0 0,-38.505789 -18.1242236,0 0,38.505789 z"
     style="fill:#5c6bc0;fill-opacity:1;fill-rule:nonzero;stroke:none"
     id="path14-0"
     inkscape:connector-curvature="0" /><path
     d="m 53.326039,75.078466 c -10.367299,0 -18.771676,8.927733 -18.771676,19.940622 0,11.012892 8.404377,19.940572 18.771676,19.940572 10.367298,0 18.771676,-8.92768 18.771676,-19.940572 0,-11.012889 -8.404378,-19.940622 -18.771676,-19.940622"
     style="fill:#5c6bc0;fill-opacity:1;fill-rule:nonzero;stroke:none"
     id="path16-0"
     inkscape:connector-curvature="0" /><path
     d="m 24.297136,122.66515 -2.611396,-0.6274 11.384594,-53.461514 2.611396,0.62745 -11.384594,53.461464"
     style="fill:#5c6bc0;fill-opacity:1;fill-rule:nonzero;stroke:none"
     id="path18-2"
     inkscape:connector-curvature="0" /><path
     d="m 94.552264,80.257362 -8.205993,0 0,6.069654 7.400305,0 0,2.299516 -7.400305,0 0,6.069653 8.205993,0 0,2.352994 -10.521737,0 0,-19.145037 10.521737,0 0,2.35322"
     style="fill:#b0bec5;fill-opacity:1;fill-rule:nonzero;stroke:none"
     id="path20-1"
     inkscape:connector-curvature="0" /><path
     d="m 106.785,97.049179 -2.71848,0 -3.04549,-4.83968 -2.995365,4.83968 -2.71848,0 4.354602,-6.657902 -4.254131,-6.443993 2.618009,0 3.045495,4.625771 2.89467,-4.625771 2.7187,0 -4.30448,6.443993 4.40495,6.657902"
     style="fill:#b0bec5;fill-opacity:1;fill-rule:nonzero;stroke:none"
     id="path22-4"
     inkscape:connector-curvature="0" /><path
     d="m 113.22859,97.263087 c -1.29226,0 -2.27777,-0.365049 -2.9576,-1.096281 -0.67962,-0.730778 -1.01922,-1.764745 -1.01922,-3.101673 l 0,-6.87181 -2.16493,0 0,-2.246039 2.16493,0 0,-4.010784 2.31553,0 0,4.010784 3.02053,0 0,2.246039 -3.02053,0 0,6.68464 c 0,1.426434 0.55376,2.139085 1.66129,2.139085 0.41938,0 0.77156,-0.07093 1.05719,-0.213908 l 0.80569,2.112346 c -0.50364,0.231583 -1.1246,0.347601 -1.86288,0.347601"
     style="fill:#b0bec5;fill-opacity:1;fill-rule:nonzero;stroke:none"
     id="path24-9"
     inkscape:connector-curvature="0" /><path
     d="m 125.08397,88.920656 c -0.0503,-0.74868 -0.37351,-1.46133 -0.96909,-2.139085 -0.59579,-0.677301 -1.48104,-1.016065 -2.65555,-1.016065 -0.85561,0 -1.59837,0.285287 -2.22743,0.855634 -0.62928,0.5708 -1.06167,1.336928 -1.29631,2.299516 l 7.14838,0 z m -3.32259,8.55634 c -1.86245,0 -3.37719,-0.6594 -4.54338,-1.978654 -1.16641,-1.319027 -1.7494,-2.985655 -1.7494,-5.000111 0,-1.907275 0.56657,-3.546938 1.69905,-4.919895 1.13292,-1.372504 2.58026,-2.058869 4.34223,-2.058869 1.82875,0 3.29294,0.632888 4.39215,1.898438 1.099,1.266003 1.64892,2.959143 1.64892,5.080326 l -0.0252,0.454556 -9.74122,0 c 0.0668,1.31948 0.48209,2.362057 1.24597,3.128411 0.76345,0.766581 1.65681,1.149759 2.68072,1.149759 1.6613,0 2.78525,-0.74868 3.37272,-2.24604 l 2.06403,0.909112 c -0.40252,1.016065 -1.06572,1.867393 -1.9883,2.553532 -0.92323,0.685912 -2.05593,1.029435 -3.39832,1.029435"
     style="fill:#b0bec5;fill-opacity:1;fill-rule:nonzero;stroke:none"
     id="path26-0"
     inkscape:connector-curvature="0" /><path
     d="m 131.37653,83.947284 0,1.818222 0.10069,0 c 0.33554,-0.623824 0.86413,-1.154063 1.58599,-1.590944 0.72122,-0.436655 1.4932,-0.655095 2.31553,-0.655095 1.52669,0 2.69331,0.499195 3.499,1.497359 0.80526,0.998618 1.20821,2.335546 1.20821,4.010784 l 0,8.021569 -2.31595,0 0,-7.647229 c 0,-2.423918 -1.01559,-3.636444 -3.04571,-3.636444 -0.9565,0 -1.7368,0.40561 -2.34091,1.216605 -0.60411,0.81122 -0.90616,1.751375 -0.90616,2.820918 l 0,7.24615 -2.31553,0 0,-13.101895 2.21485,0"
     style="fill:#b0bec5;fill-opacity:1;fill-rule:nonzero;stroke:none"
     id="path28-1"
     inkscape:connector-curvature="0" /><path
     d="m 147.83844,95.230957 c 1.09068,0 2.01753,-0.427817 2.78141,-1.283451 0.76345,-0.855634 1.14528,-2.005392 1.14528,-3.449275 0,-1.443882 -0.38183,-2.59364 -1.14528,-3.449274 -0.76388,-0.855634 -1.69073,-1.283451 -2.78141,-1.283451 -1.07404,0 -1.99726,0.432349 -2.76882,1.29682 -0.77199,0.864698 -1.15787,2.009924 -1.15787,3.435905 0,1.426435 0.38588,2.571434 1.15787,3.435905 0.77156,0.864698 1.69478,1.296821 2.76882,1.296821 z m -0.37757,2.246039 c -1.59452,0 -2.97019,-0.668464 -4.12806,-2.005392 -1.15787,-1.336928 -1.73681,-2.994719 -1.73681,-4.973373 0,-1.978653 0.57894,-3.636444 1.73681,-4.973372 1.15787,-1.336928 2.53354,-2.005392 4.12806,-2.005392 0.93965,0 1.78267,0.213908 2.5297,0.641725 0.74639,0.427817 1.30442,0.962589 1.67388,1.604314 l 0.10068,0 -0.10068,-1.818222 0,-6.043142 2.31574,0 0,19.145037 -2.21506,0 0,-1.818222 -0.10068,0 c -0.36946,0.641725 -0.92749,1.176496 -1.67388,1.604313 -0.74703,0.427817 -1.59005,0.641726 -2.5297,0.641726"
     style="fill:#b0bec5;fill-opacity:1;fill-rule:nonzero;stroke:none"
     id="path30-3"
     inkscape:connector-curvature="0" /><path
     d="m 165.08065,88.920656 c -0.0503,-0.74868 -0.37351,-1.46133 -0.96909,-2.139085 -0.59578,-0.677301 -1.48104,-1.016065 -2.65555,-1.016065 -0.85582,0 -1.59836,0.285287 -2.22743,0.855634 -0.62928,0.5708 -1.06167,1.336928 -1.29631,2.299516 l 7.14838,0 z m -3.32259,8.55634 c -1.86244,0 -3.37719,-0.6594 -4.54338,-1.978654 -1.1664,-1.319027 -1.74939,-2.985655 -1.74939,-5.000111 0,-1.907275 0.56635,-3.546938 1.69905,-4.919895 1.13291,-1.372504 2.58025,-2.058869 4.34223,-2.058869 1.82874,0 3.29293,0.632888 4.39214,1.898438 1.099,1.266003 1.64892,2.959143 1.64892,5.080326 l -0.0252,0.454556 -9.74122,0 c 0.0668,1.31948 0.48209,2.362057 1.24576,3.128411 0.76366,0.766581 1.65703,1.149759 2.68094,1.149759 1.66129,0 2.78524,-0.74868 3.37271,-2.24604 l 2.06403,0.909112 c -0.40274,1.016065 -1.06572,1.867393 -1.9883,2.553532 -0.92323,0.685912 -2.05593,1.029435 -3.39832,1.029435"
     style="fill:#b0bec5;fill-opacity:1;fill-rule:nonzero;stroke:none"
     id="path32-9"
     inkscape:connector-curvature="0" /><path
     d="m 174.82145,95.230957 c 1.09067,0 2.01753,-0.427817 2.78162,-1.283451 0.76324,-0.855634 1.14507,-2.005392 1.14507,-3.449275 0,-1.443882 -0.38183,-2.59364 -1.14507,-3.449274 -0.76409,-0.855634 -1.69095,-1.283451 -2.78162,-1.283451 -1.07405,0 -1.99727,0.432349 -2.76883,1.29682 -0.77198,0.864698 -1.15787,2.009924 -1.15787,3.435905 0,1.426435 0.38589,2.571434 1.15787,3.435905 0.77156,0.864698 1.69478,1.296821 2.76883,1.296821 z m -0.37757,2.246039 c -1.59453,0 -2.97019,-0.668464 -4.12806,-2.005392 -1.15788,-1.336928 -1.73681,-2.994719 -1.73681,-4.973373 0,-1.978653 0.57893,-3.636444 1.73681,-4.973372 1.15787,-1.336928 2.53353,-2.005392 4.12806,-2.005392 0.93964,0 1.78266,0.213908 2.52969,0.641725 0.7464,0.427817 1.30463,0.962589 1.67389,1.604314 l 0.10068,0 -0.10068,-1.818222 0,-6.043142 2.31574,0 0,19.145037 -2.21506,0 0,-1.818222 -0.10068,0 c -0.36926,0.641725 -0.92749,1.176496 -1.67389,1.604313 -0.74703,0.427817 -1.59005,0.641726 -2.52969,0.641726"
     style="fill:#b0bec5;fill-opacity:1;fill-rule:nonzero;stroke:none"
     id="path34-5"
     inkscape:connector-curvature="0" /><text
     y="108.67218"
     x="85.601761"
     style="font-variant:normal;font-weight:normal;font-size:13.63106823px;font-family:ProductSans;-inkscape-font-specification:ProductSans-Regular;writing-mode:lr-tb;fill:#b0bec5;fill-opacity:1;fill-rule:nonzero;stroke:none"
     id="text38-6"
     transform="scale(0.9702467,1.0306657)"><tspan
       x="85.601761"
       sodipodi:role="line"
       id="tspan40-6"
       y="108.67218">Madrid</tspan></text>
<g
     id="g3638-7-9"
     transform="matrix(0.1706516,0,0,0.18788587,62.190245,114.80284)"><path
       inkscape:connector-curvature="0"
       id="path14-0-3"
       style="fill:#5c6bc0;fill-opacity:1;fill-rule:nonzero;stroke:none"
       d="m -350.43946,328.32824 106.206,0 0,-212.4125 -106.206,0 0,212.4125 z" /><path
       inkscape:connector-curvature="0"
       id="path16-0-0"
       style="fill:#5c6bc0;fill-opacity:1;fill-rule:nonzero;stroke:none"
       d="m -46.992083,112.12199 c -60.751257,0 -109.999997,49.24875 -109.999997,110 0,60.75125 49.24874,109.99975 109.999997,109.99975 60.75125,0 110,-49.2485 110,-109.99975 0,-60.75125 -49.24875,-110 -110,-110" /><path
       inkscape:connector-curvature="0"
       id="path18-2-5"
       style="fill:#5c6bc0;fill-opacity:1;fill-rule:nonzero;stroke:none"
       d="m -217.09833,374.62812 -15.3025,-3.461 66.7125,-294.913882 15.3025,3.46125 -66.7125,294.913632" /><path
       inkscape:connector-curvature="0"
       id="path20-1-8"
       style="fill:#b0bec5;fill-opacity:1;fill-rule:nonzero;stroke:none"
       d="m 194.58916,140.69074 -48.08624,0 0,33.4825 43.36499,0 0,12.685 -43.36499,0 0,33.4825 48.08624,0 0,12.98 -61.65625,0 0,-105.61125 61.65625,0 0,12.98125" /><path
       inkscape:connector-curvature="0"
       id="path22-4-7"
       style="fill:#b0bec5;fill-opacity:1;fill-rule:nonzero;stroke:none"
       d="m 266.27166,233.32074 -15.93,0 -17.84625,-26.6975 -17.5525,26.6975 -15.93,0 25.5175,-36.7275 -24.92875,-35.5475 15.34125,0 17.84625,25.5175 16.9625,-25.5175 15.93125,0 -25.22375,35.5475 25.8125,36.7275" /><path
       inkscape:connector-curvature="0"
       id="path24-9-0"
       style="fill:#b0bec5;fill-opacity:1;fill-rule:nonzero;stroke:none"
       d="m 304.03041,234.50074 c -7.5725,0 -13.34749,-2.01375 -17.33124,-6.0475 -3.9825,-4.03125 -5.9725,-9.735 -5.9725,-17.11 l 0,-37.9075 -12.68625,0 0,-12.39 12.68625,0 0,-22.125 13.56875,0 0,22.125 17.7,0 0,12.39 -17.7,0 0,36.875 c 0,7.86875 3.245,11.8 9.735,11.8 2.4575,0 4.52125,-0.39125 6.195,-1.18 l 4.72125,11.6525 c -2.95125,1.2775 -6.59,1.9175 -10.91625,1.9175" /><path
       inkscape:connector-curvature="0"
       id="path26-0-7"
       style="fill:#b0bec5;fill-opacity:1;fill-rule:nonzero;stroke:none"
       d="m 373.50166,188.48074 c -0.295,-4.13 -2.18875,-8.06125 -5.67875,-11.8 -3.49125,-3.73625 -8.67875,-5.605 -15.56125,-5.605 -5.01375,0 -9.36625,1.57375 -13.0525,4.72 -3.6875,3.14875 -6.22125,7.375 -7.59625,12.685 l 41.88875,0 z m -19.47,47.2 c -10.91375,0 -19.79,-3.6375 -26.62375,-10.915 -6.835,-7.27625 -10.25125,-16.47 -10.25125,-27.5825 0,-10.52125 3.32,-19.56625 9.95625,-27.14 6.63875,-7.57125 15.12,-11.3575 25.445,-11.3575 10.71625,0 19.29625,3.49125 25.7375,10.4725 6.44,6.98375 9.6625,16.32375 9.6625,28.025 l -0.1475,2.5075 -57.0825,0 c 0.39125,7.27875 2.825,13.03 7.30125,17.2575 4.47375,4.22875 9.70875,6.3425 15.70875,6.3425 9.735,0 16.32125,-4.13 19.76375,-12.39 l 12.095,5.015 c -2.35875,5.605 -6.245,10.30125 -11.65125,14.08625 -5.41,3.78375 -12.0475,5.67875 -19.91375,5.67875" /><path
       inkscape:connector-curvature="0"
       id="path28-1-1"
       style="fill:#b0bec5;fill-opacity:1;fill-rule:nonzero;stroke:none"
       d="m 410.37541,161.04574 0,10.03 0.59,0 c 1.96625,-3.44125 5.06375,-6.36625 9.29375,-8.77625 4.22626,-2.40875 8.75,-3.61375 13.56876,-3.61375 8.94624,0 15.7825,2.75375 20.50374,8.26 4.71875,5.50875 7.08001,12.88375 7.08001,22.125 l 0,44.25 -13.57125,0 0,-42.185 c 0,-13.37125 -5.95125,-20.06 -17.8475,-20.06 -5.605,0 -10.1775,2.2375 -13.7175,6.71125 -3.54,4.475 -5.31,9.66125 -5.31,15.56125 l 0,39.9725 -13.56875,0 0,-72.275 12.97875,0" /><path
       inkscape:connector-curvature="0"
       id="path30-3-0"
       style="fill:#b0bec5;fill-opacity:1;fill-rule:nonzero;stroke:none"
       d="m 506.84041,223.29074 c 6.39125,0 11.8225,-2.36 16.29875,-7.08 4.47375,-4.72 6.71125,-11.0625 6.71125,-19.0275 0,-7.965 -2.2375,-14.3075 -6.71125,-19.0275 -4.47625,-4.72 -9.9075,-7.08 -16.29875,-7.08 -6.29375,0 -11.70375,2.385 -16.225,7.15375 -4.52375,4.77 -6.785,11.0875 -6.785,18.95375 0,7.86875 2.26125,14.185 6.785,18.95375 4.52125,4.77 9.93125,7.15375 16.225,7.15375 z m -2.2125,12.39 c -9.34375,0 -17.405,-3.6875 -24.19,-11.0625 -6.785,-7.375 -10.1775,-16.52 -10.1775,-27.435 0,-10.915 3.3925,-20.06 10.1775,-27.435 6.785,-7.375 14.84625,-11.0625 24.19,-11.0625 5.50625,0 10.44625,1.18 14.82375,3.54 4.37375,2.36 7.64375,5.31 9.80876,8.85 l 0.59,0 -0.59,-10.03 0,-33.33625 13.57,0 0,105.61125 -12.98,0 0,-10.03 -0.59,0 c -2.165,3.54 -5.435,6.49 -9.80876,8.85 -4.3775,2.36 -9.3175,3.54 -14.82375,3.54" /><path
       inkscape:connector-curvature="0"
       id="path32-9-0"
       style="fill:#b0bec5;fill-opacity:1;fill-rule:nonzero;stroke:none"
       d="m 607.87791,188.48074 c -0.295,-4.13 -2.18875,-8.06125 -5.67875,-11.8 -3.49125,-3.73625 -8.67875,-5.605 -15.56125,-5.605 -5.015,0 -9.36625,1.57375 -13.0525,4.72 -3.6875,3.14875 -6.22125,7.375 -7.59625,12.685 l 41.88875,0 z m -19.47,47.2 c -10.91375,0 -19.79,-3.6375 -26.62375,-10.915 -6.835,-7.27625 -10.25125,-16.47 -10.25125,-27.5825 0,-10.52125 3.31875,-19.56625 9.95625,-27.14 6.63875,-7.57125 15.12,-11.3575 25.445,-11.3575 10.71625,0 19.29625,3.49125 25.7375,10.4725 6.44,6.98375 9.6625,16.32375 9.6625,28.025 l -0.1475,2.5075 -57.0825,0 c 0.39125,7.27875 2.825,13.03 7.3,17.2575 4.475,4.22875 9.71,6.3425 15.71,6.3425 9.735,0 16.32125,-4.13 19.76375,-12.39 l 12.095,5.015 c -2.36,5.605 -6.245,10.30125 -11.65125,14.08625 -5.41,3.78375 -12.0475,5.67875 -19.91375,5.67875" /><path
       inkscape:connector-curvature="0"
       id="path34-5-3"
       style="fill:#b0bec5;fill-opacity:1;fill-rule:nonzero;stroke:none"
       d="m 664.95794,223.29074 c 6.3912,0 11.8225,-2.36 16.3,-7.08 4.4725,-4.72 6.71,-11.0625 6.71,-19.0275 0,-7.965 -2.2375,-14.3075 -6.71,-19.0275 -4.4775,-4.72 -9.9088,-7.08 -16.3,-7.08 -6.2938,0 -11.7038,2.385 -16.22503,7.15375 -4.52375,4.77 -6.785,11.0875 -6.785,18.95375 0,7.86875 2.26125,14.185 6.785,18.95375 4.52123,4.77 9.93123,7.15375 16.22503,7.15375 z m -2.2125,12.39 c -9.3438,0 -17.40503,-3.6875 -24.19003,-11.0625 -6.785,-7.375 -10.1775,-16.52 -10.1775,-27.435 0,-10.915 3.3925,-20.06 10.1775,-27.435 6.785,-7.375 14.84623,-11.0625 24.19003,-11.0625 5.5062,0 10.4462,1.18 14.8237,3.54 4.3738,2.36 7.645,5.31 9.8088,8.85 l 0.59,0 -0.59,-10.03 0,-33.33625 13.57,0 0,105.61125 -12.98,0 0,-10.03 -0.59,0 c -2.1638,3.54 -5.435,6.49 -9.8088,8.85 -4.3775,2.36 -9.3175,3.54 -14.8237,3.54" /><text
       id="text38-6-7"
       style="font-variant:normal;font-weight:normal;font-size:77.5px;font-family:ProductSans;-inkscape-font-specification:ProductSans-Regular;writing-mode:lr-tb;fill:#b0bec5;fill-opacity:1;fill-rule:nonzero;stroke:none"
       x="127.21542"
       y="315.82098"><tspan
         y="315.82098"
         id="tspan40-6-8"
         sodipodi:role="line"
         x="127.21542">Madrid</tspan></text>
</g></svg>